<svg width="147" height="108" viewBox="0 0 147 108" fill="none" xmlns="http://www.w3.org/2000/svg">
<path fill-rule="evenodd" clip-rule="evenodd" d="M119.171 57.6106C118.325 58.5276 117.601 59.3218 117.221 59.7436C114.913 62.3154 108.404 68.0079 105.231 73.5004C102.809 77.6899 102.316 81.7758 105.866 84.6665C109.093 87.2937 113.832 86.8188 118.994 84.364C130.104 79.0808 143.373 64.8463 146.271 59.5112C146.587 58.9286 146.373 58.2019 145.79 57.886C145.21 57.5714 144.483 57.7857 144.167 58.3683C141.385 63.4874 128.631 77.1295 117.965 82.2018C113.796 84.1838 109.985 84.9308 107.378 82.8079C104.805 80.714 105.55 77.7365 107.306 74.6994C110.392 69.3534 116.756 63.8464 119.005 61.3435C120.414 59.7736 125.956 53.9382 126.311 53.3237C126.755 52.5545 126.311 52.0167 126.152 51.8511C126.029 51.7226 125.374 51.1217 124.488 51.7558C111.857 60.7888 86.2199 65.9098 63.3603 61.9676C40.7016 58.0603 20.7274 45.1796 19.1935 17.998C19.155 17.3378 18.5885 16.8324 17.9295 16.8682C17.2692 16.9067 16.7635 17.473 16.802 18.1332C18.4097 46.6136 39.2137 60.2347 62.9513 64.3284C82.957 67.779 105.015 64.411 119.171 57.6106Z" fill="#1A1A1A"/>
<path fill-rule="evenodd" clip-rule="evenodd" d="M18.2711 19.4721C20.1759 21.5578 22.006 23.6952 24.0739 25.6341C29.5823 30.8007 36.4002 35.0025 43.713 36.9942C44.3534 37.167 45.0105 36.7893 45.1847 36.1529C45.3576 35.5125 44.9799 34.8555 44.3435 34.6812C37.402 32.7951 30.9398 28.7886 25.7141 23.8863C23.3482 21.6658 21.2956 19.179 19.0808 16.816C18.9688 16.6994 18.0378 15.6432 17.78 15.4743C17.1821 15.0775 16.6812 15.295 16.4622 15.4254C16.278 15.5321 16.0829 15.704 15.9376 15.9896C15.8196 16.2247 15.7005 16.7233 15.6831 17.424C15.6203 19.668 16.2248 24.9233 16.2327 25.7965C16.3252 35.8051 14.731 45.1319 13.2982 54.9934C13.2054 55.6483 13.6591 56.2578 14.3128 56.3533C14.9664 56.4488 15.5731 55.9937 15.6687 55.3401C17.1204 45.3539 18.7215 35.9066 18.6264 25.7764C18.623 25.1763 18.4207 21.8536 18.2711 19.4721Z" fill="#1A1A1A"/>
</svg>
