<svg width="162" height="39" viewBox="0 0 162 39" fill="none" xmlns="http://www.w3.org/2000/svg">
<path d="M78.4697 14.8477V11.1094H67.0791V30H78.4697V26.2266H70.8759V22.3242H77.3916V18.5391H70.8759V14.8477H78.4697ZM107.105 19.3945H98.2221V22.8984H103.109C102.98 25.1719 101.046 26.5547 98.351 26.5547C94.6596 26.5547 92.1049 23.8594 92.1049 20.5781C92.1049 17.0508 95.0697 14.5664 97.9994 14.5664C99.6869 14.5664 101.374 15.3867 102.851 16.8281L104.96 13.6758C103.109 11.8711 100.496 10.7461 98.0463 10.7227C92.6439 10.7227 88.2377 15.1758 88.2377 20.5781C88.2377 25.9688 92.6205 30.375 98.1869 30.375C103.109 30.375 107.199 26.918 107.199 20.9883C107.199 20.4727 107.163 19.9453 107.105 19.3945ZM117.169 30.4102C121.188 30.4102 124.458 27.293 124.458 23.0156V11.1094H120.637V23.0039C120.637 25.0547 118.985 26.5664 117.157 26.5664C115.329 26.5664 113.7 25.0664 113.7 23.0039V11.1094H109.88V23.0156C109.88 27.293 113.149 30.4102 117.169 30.4102ZM142.42 30L137.053 22.4883C139.08 21.7734 140.545 19.6523 140.545 17.2266C140.545 13.8281 137.65 11.1094 134.123 11.1094H127.959L127.971 30H131.767V21.0703L137.779 30H142.42ZM131.756 14.8711H134.193C135.471 14.8711 136.631 15.9023 136.631 17.25C136.631 18.5977 135.482 19.6406 134.193 19.6289L131.756 19.6172V14.8711ZM150.796 30.4102C154.815 30.4102 158.085 27.293 158.085 23.0156V11.1094H154.265V23.0039C154.265 25.0547 152.612 26.5664 150.784 26.5664C148.956 26.5664 147.327 25.0664 147.327 23.0039V11.1094H143.507V23.0156C143.507 27.293 146.776 30.4102 150.796 30.4102Z" fill="#1A1A1A"/>
<path d="M19.0399 27.9529C19.0399 26.6352 18.5763 25.6085 17.6492 24.8727C16.7389 24.1369 15.1291 23.3754 12.8197 22.5882C10.5103 21.801 8.62231 21.0395 7.15576 20.3037C2.38525 17.9251 -1.07431e-06 14.6567 0 10.4984C5.34946e-07 8.42779 0.589993 6.60533 1.76998 5.031C2.96682 3.43956 4.65251 2.20748 6.82706 1.33475C9.0016 0.444918 11.4459 -7.22568e-07 14.1598 0C16.8064 7.04618e-07 19.1748 0.479145 21.265 1.43743C22.2919 1.90446 23.2067 2.46904 24.0095 3.13117C24.548 2.74999 25.1278 2.4079 25.7489 2.10488C27.9234 1.04392 30.4941 0.513445 33.4609 0.513446C37.9448 0.513447 41.4764 1.69419 44.0555 4.05569C46.6346 6.41718 47.9494 9.6514 48 13.7583L48 38.4L39.0743 38.4L39.0743 13.5787C38.9731 9.48883 37.102 7.44391 33.4609 7.44391C31.6235 7.44391 30.2328 7.95728 29.2888 8.98402C28.3448 10.0108 27.8728 11.6792 27.8728 13.9894L27.8728 20.1588C26.4043 18.3613 24.3921 16.8577 21.9513 15.6403C21.0805 15.2035 20.0942 14.7678 18.9977 14.3321V13.938C18.9977 13.128 19.0473 12.3493 19.1466 11.6021H19.0652C19.0652 10.0791 18.6016 8.89838 17.6745 8.05988C16.7642 7.22138 15.5252 6.80213 13.9575 6.80212C12.373 6.80212 11.1171 7.16148 10.19 7.8802C9.27974 8.5818 8.8246 9.48019 8.8246 10.5754C8.8246 11.5337 9.33031 12.4064 10.3417 13.1936C11.3531 13.9636 13.1315 14.7679 15.6769 15.6064C18.2223 16.4278 20.3126 17.3176 21.9477 18.2759C25.9259 20.6032 27.9151 23.8117 27.9151 27.9016C27.9151 31.17 26.7014 33.7368 24.274 35.6021C21.8466 37.4673 18.5173 38.3999 14.2862 38.3999L14.2862 31.6235C15.7528 31.6235 16.9075 31.3069 17.7503 30.6737C18.61 30.0235 19.0399 29.1165 19.0399 27.9529Z" fill="#FF5202"/>
</svg>
