<svg width="58" height="58" viewBox="0 0 58 58" fill="none" xmlns="http://www.w3.org/2000/svg">
<rect width="58" height="58" rx="10" fill="#1CD7AF"/>
<g clip-path="url(#clip0_4_96)">
<path d="M42.8973 38.3649L41.6641 31.4116C42.1722 30.9528 42.5559 30.3728 42.7795 29.7257C43.0031 29.0787 43.0593 28.3855 42.9428 27.7109C42.8264 27.0363 42.5411 26.4021 42.1135 25.8674C41.6859 25.3328 41.13 24.915 40.4975 24.6531C40.0315 21.9856 38.6522 19.5632 36.5959 17.8013C34.5396 16.0394 31.9345 15.0476 29.2271 14.996C26.5197 14.9444 23.8786 15.8362 21.7567 17.5186C19.6348 19.2009 18.1642 21.5689 17.597 24.2168L16.75 29.0001C16.75 29.0001 18.6248 29.0001 18.8243 28.9849C20.8058 28.9249 22.753 28.4516 24.541 27.5954C24.4048 27.8478 24.3334 28.13 24.3333 28.4168C24.3311 28.7565 24.4279 29.0896 24.6118 29.3753C24.7957 29.661 25.0588 29.887 25.369 30.0257C25.6792 30.1644 26.023 30.2098 26.3586 30.1563C26.6942 30.1028 27.0069 29.9529 27.2586 29.7246C27.5104 29.4964 27.6902 29.1999 27.7763 28.8712C27.8623 28.5424 27.8507 28.1958 27.7431 27.8735C27.6354 27.5512 27.4362 27.2673 27.1699 27.0563C26.9035 26.8453 26.5815 26.7165 26.2431 26.6854C29.4916 24.8046 32.1206 22.0166 33.8078 18.6634C35.0464 19.4045 36.0953 20.4238 36.8715 21.6406C37.6477 22.8575 38.1298 24.2384 38.2796 25.6739L38.3706 26.5443L39.2316 26.6994C39.6567 26.7826 40.0358 27.0204 40.2957 27.3668C40.5556 27.7133 40.6777 28.1439 40.6385 28.5752C40.5994 29.0065 40.4016 29.408 40.0836 29.702C39.7655 29.996 39.3497 30.1616 38.9166 30.1668H37.5761L37.3195 30.8948C36.2496 33.9258 32.6516 37.1668 29 37.1668C27.2378 37.026 25.547 36.4089 24.1085 35.3814C22.67 34.3539 21.5379 32.9547 20.8333 31.3334H16.3381L15.0758 38.4676C14.9639 39.0163 14.9754 39.5831 15.1095 40.1269C15.2436 40.6706 15.4969 41.1778 15.8511 41.6116C16.2053 42.0454 16.6515 42.395 17.1575 42.6352C17.6634 42.8753 18.2164 43 18.7765 43.0001H25.5V38.8094C26.613 39.2571 27.8003 39.4914 29 39.5001C30.1995 39.4912 31.3867 39.2573 32.5 38.8106V43.0001H39.2223C39.7993 43.0018 40.3689 42.8706 40.8869 42.6164C41.4048 42.3623 41.8573 41.9921 42.209 41.5348C42.5569 41.0933 42.7997 40.5785 42.9189 40.0293C43.0382 39.48 43.0308 38.9109 42.8973 38.3649Z" fill="#FDFBF2"/>
<path d="M31.9165 30.166C32.883 30.166 33.6665 29.3825 33.6665 28.416C33.6665 27.4495 32.883 26.666 31.9165 26.666C30.95 26.666 30.1665 27.4495 30.1665 28.416C30.1665 29.3825 30.95 30.166 31.9165 30.166Z" fill="#FDFBF2"/>
</g>
<defs>
<clipPath id="clip0_4_96">
<rect width="28" height="28" fill="white" transform="translate(15 15)"/>
</clipPath>
</defs>
</svg>
